<svg width="17" height="18" viewBox="0 0 17 18" fill="none" xmlns="http://www.w3.org/2000/svg">
<path d="M6.93577 1.19724C5.22744 1.19724 4.7316 1.2639 4.0191 1.54724C3.28127 1.84232 2.62595 2.31184 2.10928 2.91559C1.59261 3.51935 1.22997 4.23934 1.05244 5.0139C0.977436 5.31807 0.964936 5.8014 0.94827 8.5889C0.92327 12.0806 0.94827 12.5972 1.1691 13.2889C1.31864 13.8045 1.56778 14.2858 1.90244 14.7056C2.59982 15.6431 3.61679 16.2925 4.76077 16.5306C5.2691 16.6222 11.5483 16.6472 12.1941 16.5597C13.2732 16.4249 14.2704 15.9145 15.0108 15.1181C15.5965 14.5251 16.0149 13.7876 16.2233 12.9806C16.3233 12.6181 16.3316 12.4389 16.3524 10.3097C16.3853 9.45961 16.3714 8.60833 16.3108 7.75973C16.287 7.63118 16.2379 7.50864 16.1664 7.3992C16.0948 7.28977 16.0023 7.19562 15.8941 7.12223C15.6119 7.06204 15.3243 7.03132 15.0358 7.03057C14.3441 6.99723 14.2649 6.98474 14.0483 6.85974C13.7024 6.65557 13.6066 6.44307 13.6066 5.84307C13.591 5.25055 13.4573 4.6671 13.2133 4.12692C12.9693 3.58674 12.62 3.10068 12.1858 2.69724C11.5636 2.04884 10.7863 1.56985 9.92744 1.30557C9.72744 1.24307 9.27327 1.22224 7.75244 1.20557H6.9191L6.93577 1.19724ZM7.24827 5.2889C8.76077 5.2889 8.81077 5.2889 9.0316 5.40557C9.17564 5.4678 9.29652 5.57364 9.37725 5.70818C9.45797 5.84272 9.49447 5.99919 9.4816 6.15557C9.48592 6.30592 9.44947 6.45463 9.37612 6.58594C9.30276 6.71725 9.19523 6.82626 9.06494 6.9014C8.91077 6.99724 8.81494 7.00557 7.33577 7.0139C6.75211 7.02977 6.16802 7.01586 5.58577 6.97224C5.45228 6.92325 5.33266 6.84261 5.23717 6.73724C5.14168 6.63187 5.07318 6.50492 5.03754 6.36726C5.00189 6.2296 5.00017 6.08535 5.03252 5.94688C5.06487 5.80841 5.13032 5.67985 5.22327 5.57224C5.4941 5.3014 5.5691 5.29307 7.24827 5.29307V5.2889ZM8.64827 10.8264C11.7316 10.8264 11.7149 10.8264 12.0108 11.0931C12.1098 11.1833 12.1856 11.2962 12.2317 11.422C12.2779 11.5478 12.293 11.6828 12.2758 11.8157C12.2586 11.9486 12.2097 12.0754 12.1331 12.1853C12.0565 12.2953 11.9545 12.3851 11.8358 12.4472L11.3233 12.5306L8.64827 12.5639C6.3066 12.5889 5.63994 12.5639 5.5191 12.4931C5.38775 12.4283 5.27315 12.3341 5.18424 12.2177C5.09534 12.1013 5.03454 11.966 5.0066 11.8222C4.99438 11.6812 5.01302 11.5392 5.06123 11.4061C5.10944 11.2729 5.18606 11.1519 5.28577 11.0514C5.5316 10.8306 5.63577 10.8222 8.6191 10.8222L8.64827 10.8264Z" stroke="#44566C" stroke-linecap="round" stroke-linejoin="round"/>
</svg>
