<svg width="20" height="20" viewBox="0 0 20 20" fill="none" xmlns="http://www.w3.org/2000/svg">
<path d="M8.39427 14.1135L13.9755 8.53223L12.8672 7.42389L8.39427 11.8968L6.13802 9.64056L5.02969 10.7489L8.39427 14.1135ZM9.5026 18.3885C8.40746 18.3885 7.3783 18.1805 6.4151 17.7646C5.45191 17.3493 4.61406 16.7854 3.90156 16.0729C3.18906 15.3604 2.62513 14.5225 2.20977 13.5593C1.79388 12.5961 1.58594 11.5669 1.58594 10.4718C1.58594 9.37667 1.79388 8.34751 2.20977 7.38431C2.62513 6.42112 3.18906 5.58327 3.90156 4.87077C4.61406 4.15827 5.45191 3.59408 6.4151 3.17819C7.3783 2.76283 8.40746 2.55515 9.5026 2.55515C10.5977 2.55515 11.6269 2.76283 12.5901 3.17819C13.5533 3.59408 14.3911 4.15827 15.1036 4.87077C15.8161 5.58327 16.3801 6.42112 16.7954 7.38431C17.2113 8.34751 17.4193 9.37667 17.4193 10.4718C17.4193 11.5669 17.2113 12.5961 16.7954 13.5593C16.3801 14.5225 15.8161 15.3604 15.1036 16.0729C14.3911 16.7854 13.5533 17.3493 12.5901 17.7646C11.6269 18.1805 10.5977 18.3885 9.5026 18.3885Z" fill="#667EEA"/>
</svg>
