<svg id="Layer_1" data-name="Layer 1" xmlns="http://www.w3.org/2000/svg" viewBox="0 0 200 26.8"><defs><style>.cls-1{fill:#383840;}.cls-2{fill:#1f3656;}.cls-3{fill:#6979bb;}.cls-4{fill:#47ba7a;}.cls-5{fill:#f05a74;}.cls-6{fill:#faef65;}</style></defs><title>website lgoo</title><path class="cls-1" d="M8.2,21.85,4,18.57A10.64,10.64,0,0,0,.42,16.74.49.49,0,0,1,0,16.23c0-.19,0-.47,0-.83s0-.65,0-.83,0-.4,0-.73,0-.58,0-.75a.55.55,0,0,1,.42-.52,23.16,23.16,0,0,0,3.63-1.91A19.46,19.46,0,0,0,6,9.25l1.9-1.48a1.21,1.21,0,0,1,.35-.19c.22.09.54.57,1,1.42a5,5,0,0,1,.6,1.66.75.75,0,0,1-.19.39,9.84,9.84,0,0,1-5.21,3.29.56.56,0,0,0-.28.19.56.56,0,0,0,.26.19C7.05,15.81,8.81,17,9.65,18.14a.87.87,0,0,1,.2.43,6,6,0,0,1-.67,1.81C8.72,21.36,8.4,21.85,8.2,21.85Z"/><path class="cls-1" d="M28.19,16.34c0,.24-.14.41-.43.52a23.16,23.16,0,0,0-3.63,1.91c-.54.33-1.19.8-2,1.39-1.16.92-1.79,1.42-1.9,1.49a1.35,1.35,0,0,1-.35.2c-.19-.08-.49-.52-.87-1.3A4.81,4.81,0,0,1,18.47,19a.7.7,0,0,1,.21-.4,10.09,10.09,0,0,1,5.08-3.55.55.55,0,0,0,.29-.18.59.59,0,0,0-.27-.19,11.65,11.65,0,0,1-5.21-3.57.78.78,0,0,1-.2-.42A6.08,6.08,0,0,1,19.06,9c.45-.93.76-1.39.92-1.39l4.21,3.28a10.43,10.43,0,0,0,3.57,1.82.5.5,0,0,1,.43.52c0,.19,0,.46,0,.83s0,.64,0,.83,0,.4,0,.73S28.19,16.17,28.19,16.34Z"/><path class="cls-2" d="M42.59,15.72c0,.68,0,1.69,0,3s0,2.35,0,3c0,.19-.11.31-.35.35a17.46,17.46,0,0,1-2.13.08A17.88,17.88,0,0,1,38,22.13c-.2,0-.33-.1-.38-.19a2.38,2.38,0,0,1,0-.41c0-.65,0-1.61,0-2.9s0-2.26,0-2.91a49.7,49.7,0,0,0-.31-6.3c0-.15,0-.25,0-.29,0-.19.12-.28.37-.28a11.33,11.33,0,0,1,1.2.08,11,11,0,0,0,1.2.08c.27,0,.68,0,1.22-.07s.94-.07,1.21-.07.33.1.33.28,0,.13,0,.27A55.45,55.45,0,0,0,42.59,15.72ZM43,5.36q0,2.43-2.73,2.43a3,3,0,0,1-1.94-.62,2.18,2.18,0,0,1-.84-1.81,2.2,2.2,0,0,1,.87-1.79,3,3,0,0,1,1.91-.64,2.86,2.86,0,0,1,1.88.66A2.17,2.17,0,0,1,43,5.36Z"/><path class="cls-2" d="M60.4,15.3a7.26,7.26,0,0,1-1.67,4.9,5.82,5.82,0,0,1-4.66,2.09,4.75,4.75,0,0,1-3.38-1.2.3.3,0,0,0-.16-.08c-.1,0-.18.17-.26.52s-.18.53-.29.57-1.48.07-4,.07c-.59,0-.88-.11-.88-.32a1.62,1.62,0,0,1,0-.21,84,84,0,0,0,.28-8.46q0-6-.42-10.36l0-.15c0-.15.15-.24.44-.25l2.42-.21c1-.1,1.81-.14,2.43-.14.18,0,.26.15.26.46s0,.84-.06,1.43c-.06.74-.09,1.22-.1,1.45,0,.93-.07,2.18-.07,3.77,0,.29.07.43.22.43a.26.26,0,0,0,.21-.11A4.31,4.31,0,0,1,54,8.16a5.85,5.85,0,0,1,4.77,2.08A7.68,7.68,0,0,1,60.4,15.3Zm-5-.15a2.83,2.83,0,0,0-.71-2,2.36,2.36,0,0,0-1.85-.8,2.31,2.31,0,0,0-1.85.8,3,3,0,0,0-.68,2,2.89,2.89,0,0,0,.66,2,2.6,2.6,0,0,0,3.78,0A3,3,0,0,0,55.35,15.15Z"/><path class="cls-2" d="M71.35,13.44q0,.54-.6.54c-.17,0-.43,0-.77,0l-.76,0a2.52,2.52,0,0,0-1.58.36,1.92,1.92,0,0,0-.42,1.47c0,.4,0,1,0,1.82s0,1.42,0,1.82,0,.67,0,1.2.06.94.06,1.2-.16.35-.46.37c-.45,0-1.13.06-2,.06s-1.59,0-2.12-.08c-.31,0-.46-.19-.46-.46,0-.75,0-1.86,0-3.35s0-2.59,0-3.34a20.2,20.2,0,0,0-.6-5.39.9.9,0,0,1,0-.21.27.27,0,0,1,.2-.28c.52-.06,1.26-.16,2.25-.31,1.47-.29,2.23-.43,2.27-.43s.28.29.33.88.13.88.25.88c-.13,0,.25-.25,1.14-.74a5.34,5.34,0,0,1,2.58-.73c.52,0,.78.11.78.34s0,.65-.08,1.14-.09.91-.1,1.14,0,.63,0,1.08S71.35,13.26,71.35,13.44Z"/><path class="cls-2" d="M87,15.15c0,.72,0,1.78.13,3.2s.13,2.47.13,3.18c0,.37-.17.57-.49.6-1.16.08-2.48.12-4,.12-.17,0-.29-.27-.35-.8s-.13-.81-.22-.82a1.54,1.54,0,0,0-.29.24,4.68,4.68,0,0,1-3.35,1.58,5.61,5.61,0,0,1-4.5-2.15,7.2,7.2,0,0,1-1.69-4.8,7.54,7.54,0,0,1,1.74-5.19,6.32,6.32,0,0,1,5-2,4.27,4.27,0,0,1,3.46,1.54.13.13,0,0,0,.1.07c.08,0,.17-.23.28-.68s.24-.67.39-.67a11.65,11.65,0,0,1,2,.29,18.63,18.63,0,0,1,2,.47c.14.06.21.13.21.23a2.12,2.12,0,0,1,0,.29A30.36,30.36,0,0,0,87,15.15Zm-4.49.09a2.71,2.71,0,0,0-.74-2,2.83,2.83,0,0,0-3.89,0,2.73,2.73,0,0,0-.74,2,2.68,2.68,0,0,0,.78,1.93,2.55,2.55,0,0,0,1.9.81,2.61,2.61,0,0,0,1.94-.77A2.73,2.73,0,0,0,82.51,15.24Z"/><path class="cls-2" d="M99,13.44q0,.54-.6.54c-.18,0-.44,0-.77,0l-.77,0a2.49,2.49,0,0,0-1.57.36,1.92,1.92,0,0,0-.42,1.47c0,.4,0,1,0,1.82s0,1.42,0,1.82,0,.67.06,1.2,0,.94,0,1.2-.15.35-.46.37-1.13.06-2,.06-1.59,0-2.12-.08c-.3,0-.46-.19-.46-.46,0-.75,0-1.86,0-3.35s0-2.59,0-3.34a20.2,20.2,0,0,0-.6-5.39,1,1,0,0,1,0-.21.27.27,0,0,1,.21-.28c.51-.06,1.26-.16,2.25-.31,1.47-.29,2.22-.43,2.27-.43s.28.29.32.88.13.88.25.88c-.13,0,.25-.25,1.15-.74a5.34,5.34,0,0,1,2.58-.73c.52,0,.78.11.78.34s0,.65-.08,1.14S99,11,99,11.27s0,.63,0,1.08S99,13.26,99,13.44Z"/><path class="cls-2" d="M123,21.61q0,.5-.42.54a20.22,20.22,0,0,1-2.06.06,16.67,16.67,0,0,1-2.12-.08q-.42-.09-.42-.69c0-.43,0-1.06,0-1.92s0-1.49,0-1.91c0-1.63,0-2.79-.05-3.48-.06-1.1-.58-1.66-1.58-1.66a2.05,2.05,0,0,0-1.3.55,1.9,1.9,0,0,0-.72,1.22c0,.4-.06,1.54-.06,3.44,0,.43,0,1.1,0,2s0,1.56,0,2c0,.3-.14.46-.41.46h-4.22c-.27,0-.4-.19-.4-.58s0-1.09,0-2,0-1.54,0-2,0-.87,0-1.57,0-1.22,0-1.57c0-1.33-.5-2-1.52-2a2.38,2.38,0,0,0-1.32.48c-.52.34-.78.7-.78,1.09,0,.84,0,2.11,0,3.79s0,2.94,0,3.78c0,.23,0,.38-.08.43a.77.77,0,0,1-.43.11q-.63.06-2,.06c-.59,0-1.25,0-2-.08a.77.77,0,0,1-.39-.1c0-.05-.07-.19-.07-.42,0-.74,0-1.86,0-3.34s0-2.6,0-3.34a43.32,43.32,0,0,0-.34-5.15c0-.11,0-.19,0-.25a.31.31,0,0,1,.19-.32A5.27,5.27,0,0,1,101.86,9l1.24-.13c.09,0,.46-.11,1.1-.29a4.27,4.27,0,0,1,1.11-.19c.17,0,.27.32.27,1s0,1,.12,1a1.26,1.26,0,0,0,.32-.19,13,13,0,0,1,2-1.34,5.34,5.34,0,0,1,2.33-.52,4.42,4.42,0,0,1,2.28.58,2.91,2.91,0,0,1,1.47,1.8,5.75,5.75,0,0,1,2-1.69,5.32,5.32,0,0,1,2.52-.69,4.92,4.92,0,0,1,3,.86A3.2,3.2,0,0,1,123,11.87c0,.5,0,1.24,0,2.23s0,1.73,0,2.22,0,1.47,0,2.65S123,21,123,21.61Z"/><path class="cls-2" d="M139.62,15.15c0,.72,0,1.78.13,3.2s.12,2.47.12,3.18c0,.37-.16.57-.49.6q-1.73.12-4,.12c-.17,0-.29-.27-.35-.8s-.13-.81-.22-.82a1.54,1.54,0,0,0-.29.24,4.68,4.68,0,0,1-3.35,1.58,5.65,5.65,0,0,1-4.51-2.15A7.24,7.24,0,0,1,125,15.5a7.54,7.54,0,0,1,1.74-5.19,6.3,6.3,0,0,1,5-2,4.27,4.27,0,0,1,3.46,1.54.13.13,0,0,0,.09.07c.09,0,.18-.23.29-.68s.23-.67.38-.67a11.59,11.59,0,0,1,2,.29,18.63,18.63,0,0,1,2,.47c.14.06.21.13.21.23a2.12,2.12,0,0,1,0,.29A30.36,30.36,0,0,0,139.62,15.15Zm-4.49.09a2.68,2.68,0,0,0-.75-2,2.55,2.55,0,0,0-1.94-.78,2.58,2.58,0,0,0-1.94.77,2.69,2.69,0,0,0-.74,2,2.68,2.68,0,0,0,.78,1.93,2.53,2.53,0,0,0,1.9.81,2.62,2.62,0,0,0,1.94-.77A2.73,2.73,0,0,0,135.13,15.24Z"/><path class="cls-2" d="M147.47,13.73c0,2.54,0,4.49,0,5.84,0,.22,0,.58,0,1.11s.05.84.05,1.1-.12.31-.35.35a15.86,15.86,0,0,1-2.26.11,12.66,12.66,0,0,1-2.14-.11.43.43,0,0,1-.35-.38v-.6q0-1.24,0-3.72c0-1.65,0-2.88,0-3.7,0-3.91,0-5.69,0-5.34a41.53,41.53,0,0,0-.35-5.32c0-.1,0-.18,0-.24s.12-.3.36-.3h5c.23,0,.34.09.32.29v.25C147.6,7.09,147.47,10.64,147.47,13.73Z"/><path class="cls-2" d="M155.19,15.72c0,.68,0,1.69,0,3s0,2.35,0,3c0,.19-.11.31-.35.35a17.46,17.46,0,0,1-2.13.08,17.88,17.88,0,0,1-2.15-.08c-.2,0-.33-.1-.38-.19a2.38,2.38,0,0,1,0-.41c0-.65,0-1.61,0-2.9s0-2.26,0-2.91a49.7,49.7,0,0,0-.31-6.3c0-.15,0-.25,0-.29,0-.19.12-.28.37-.28a11.33,11.33,0,0,1,1.2.08,11,11,0,0,0,1.2.08c.27,0,.68,0,1.22-.07s.94-.07,1.21-.07.33.1.33.28,0,.13,0,.27A55.45,55.45,0,0,0,155.19,15.72Zm.36-10.36q0,2.43-2.73,2.43a3,3,0,0,1-1.94-.62A2.18,2.18,0,0,1,150,5.36a2.2,2.2,0,0,1,.87-1.79,3,3,0,0,1,1.91-.64,2.86,2.86,0,0,1,1.88.66A2.17,2.17,0,0,1,155.55,5.36Z"/><path class="cls-2" d="M173.38,13a5.06,5.06,0,0,1-3,4.68c-.18.1-.28.19-.28.3a9.24,9.24,0,0,0,1.3,2,20.65,20.65,0,0,1,1.3,1.82c0,.25-1.24.38-3.7.38-.95,0-1.5-.12-1.64-.36-.38-.63-1-1.52-1.75-2.68a15.46,15.46,0,0,0-2.51-.2c0,.29,0,.75,0,1.38s0,1.1,0,1.41a.41.41,0,0,1-.41.46c-.16,0-.9,0-2.2,0a16.49,16.49,0,0,1-2-.06c-.25,0-.37-.23-.37-.57V13c0-1.14-.05-2.85-.13-5.13s-.12-4-.12-5.12c0-.22.12-.34.37-.35l2.22,0c.26,0,.71-.08,1.35-.17a9.06,9.06,0,0,1,1.34-.13c.15,0,.22.14.22.41s0,.83-.08,1.43-.1,1.19-.11,1.45q-.12,3-.12,4.65c0,.26,0,.39.09.4a1.6,1.6,0,0,0,.34-.3,5.88,5.88,0,0,1,4.4-1.89,6.17,6.17,0,0,1,3.88,1.12A4.35,4.35,0,0,1,173.38,13Zm-5.54.9c0-1.12-.64-1.68-1.91-1.68a3.27,3.27,0,0,0-1.81.64,1.86,1.86,0,0,0-1,1.49c0,.77.1,1.24.31,1.4a4.32,4.32,0,0,0,1.61.16C166.9,15.93,167.84,15.26,167.84,13.92Z"/><path class="cls-3" d="M177.4,12.71a1.58,1.58,0,0,1-.46,1.15,1.58,1.58,0,0,1-2.25,0,1.58,1.58,0,0,1-.46-1.15,1.54,1.54,0,0,1,.46-1.13,1.48,1.48,0,0,1,1.12-.48,1.52,1.52,0,0,1,1.13.48A1.54,1.54,0,0,1,177.4,12.71Z"/><path class="cls-3" d="M185.52,4.58c0-.1,0,0-.05.45s-.09,1.14-.12,1.92,0,1.9,0,3a36.22,36.22,0,0,0,.15,4c0,.09,0,.14,0,.16s0,.08-.1.09-.76,0-1.8,0q-.36,0-.42-.15l0-.51a.18.18,0,0,0-.05-.11.31.31,0,0,0-.1.08,2.51,2.51,0,0,1-1.83.72,2.86,2.86,0,0,1-2.29-1,3.57,3.57,0,0,1-.82-2.42,3.69,3.69,0,0,1,.8-2.43,2.86,2.86,0,0,1,2.31-1,2,2,0,0,1,1.59.66c.06.07.11.1.14.1s.06-.06.06-.17q0-.52,0-1.56c0-.69,0-1.21,0-1.55,0-.13,0-.21.11-.23l1.19-.08a8.58,8.58,0,0,0,1.2-.17C185.47,4.41,185.52,4.47,185.52,4.58ZM183,10.81a1.38,1.38,0,0,0-.37-.94,1.18,1.18,0,0,0-.91-.4,1.07,1.07,0,0,0-.88.4,1.48,1.48,0,0,0-.33,1,1.39,1.39,0,0,0,.33.93,1.1,1.1,0,0,0,.88.4,1.16,1.16,0,0,0,.91-.4A1.38,1.38,0,0,0,183,10.81Z"/><path class="cls-3" d="M192.73,10.52c0,.45-.14.71-.44.78l-1.4.15c-.53.06-1.33.13-2.38.21a1,1,0,0,0,.57.67,2.13,2.13,0,0,0,.9.19,2.54,2.54,0,0,0,1.21-.33l.51-.32q.15.06.48.69a2.41,2.41,0,0,1,.34.79s0,.08-.1.16a3.38,3.38,0,0,1-2.57.89,3.59,3.59,0,0,1-2.6-1,3.32,3.32,0,0,1-1-2.55,3.65,3.65,0,0,1,.91-2.56,3.21,3.21,0,0,1,2.48-1,3,3,0,0,1,2.21,1A3.17,3.17,0,0,1,192.73,10.52Zm-2.37-.41a1,1,0,0,0-.3-.74.9.9,0,0,0-.71-.32.85.85,0,0,0-.7.36,1.24,1.24,0,0,0-.26.78c0,.12.06.18.19.18a11.21,11.21,0,0,0,1.56-.16C190.29,10.19,190.36,10.15,190.36,10.11Z"/><path class="cls-3" d="M200,9.5a6.63,6.63,0,0,1-.07,1.36A8.55,8.55,0,0,1,199,12.5,17.3,17.3,0,0,1,197.83,14c-.12.14-.47.21-1.06.21a6.64,6.64,0,0,1-1-.05.43.43,0,0,1-.23-.14,14.36,14.36,0,0,1-1.16-1.53,9,9,0,0,1-1-1.6,4.23,4.23,0,0,1-.17-1.41V8.73c0-.36,0-.63,0-.81s.08-.17.24-.17.57,0,1,0l1,0q.15,0,.15.21c0,.12,0,.31,0,.57s0,.45,0,.58c0,.47,0,.85,0,1.15a2.61,2.61,0,0,0,.39.87c.26.45.45.67.57.67s.29-.22.54-.66a2.59,2.59,0,0,0,.38-.84,9.58,9.58,0,0,0,.06-1.16,5.67,5.67,0,0,0,0-.6,5.37,5.37,0,0,1,0-.58c0-.14,0-.21.14-.21h1l.49,0,.49,0a.21.21,0,0,1,.22.17A6.52,6.52,0,0,1,200,9.5Z"/><path class="cls-2" d="M13.75,14.25l2.88-8.48a.58.58,0,0,1,.73-.35.57.57,0,0,1,.35.72l-2.87,8.47a.58.58,0,0,1-.73.36A.57.57,0,0,1,13.75,14.25Z"/><path class="cls-4" d="M12,19.41l1.18-3.48a.58.58,0,0,1,.73-.36.56.56,0,0,1,.35.73l-1.18,3.47A.57.57,0,1,1,12,19.41Z"/><path class="cls-5" d="M10.54,23.72l1-2.83a.57.57,0,0,1,1.08.37l-1,2.83a.57.57,0,0,1-.72.36A.58.58,0,0,1,10.54,23.72Z"/><circle class="cls-6" cx="10.57" cy="25.4" r="0.58"/><path class="cls-3" d="M17.8,5.34l-.38-.21a.31.31,0,0,1-.16-.28c0-.1,0-.22,0-.36l-1,.3A.24.24,0,0,1,16,4.73.25.25,0,0,1,16,4.5l.26-1A.7.7,0,0,1,16.72,3l.78-.23a.56.56,0,0,1,0-.12A2.62,2.62,0,0,1,19.86.81a.28.28,0,0,1,.28.16,2.61,2.61,0,0,1-.29,2.94.41.41,0,0,1-.09.1L20,4.8a.7.7,0,0,1-.16.68l-.69.75a.25.25,0,0,1-.23.07.24.24,0,0,1-.18-.17l-.3-1-.3.22a.32.32,0,0,1-.33,0Zm1.56-2.7a.4.4,0,1,0-.49-.27A.4.4,0,0,0,19.36,2.64Z"/></svg>