<svg width="17" height="16" viewBox="0 0 17 16" fill="none" xmlns="http://www.w3.org/2000/svg">
<path d="M16.0236 9.64775C15.9833 9.51792 15.9023 9.4045 15.7925 9.3243C15.6828 9.2441 15.5501 9.20137 15.4142 9.20243L15.2423 9.23368C14.1233 9.54255 12.9424 9.54905 11.82 9.25254C10.6977 8.95603 9.67408 8.36712 8.85363 7.54587C8.03318 6.72463 7.44525 5.70045 7.14983 4.57781C6.8544 3.45518 6.86206 2.27427 7.172 1.15556C7.18731 1.11025 7.19523 1.06276 7.19544 1.01493C7.20286 0.914111 7.18541 0.813007 7.1446 0.72051C7.1038 0.628013 7.0409 0.546956 6.96144 0.484462C6.88197 0.421969 6.78837 0.379953 6.68886 0.362108C6.58935 0.344263 6.48698 0.351136 6.39075 0.382122C5.07732 0.750264 3.88317 1.45588 2.92708 2.42877C1.971 3.40166 1.28629 4.60792 0.941089 5.92756C0.595884 7.24721 0.602207 8.63423 0.959428 9.95068C1.31665 11.2671 2.01232 12.4671 2.97724 13.4312C3.94215 14.3954 5.14269 15.0901 6.45942 15.4462C7.77615 15.8024 9.16318 15.8076 10.4825 15.4613C11.8019 15.115 13.0076 14.4293 13.9797 13.4724C14.9518 12.5156 15.6565 11.3208 16.0236 10.0071C16.0629 9.89055 16.0629 9.76432 16.0236 9.64775ZM8.50013 14.4681C7.00326 14.4693 5.55097 13.9587 4.38415 13.0211C3.21734 12.0834 2.40613 10.7751 2.08508 9.31307C1.76404 7.85104 1.95246 6.3232 2.61908 4.98297C3.28571 3.64274 4.39047 2.57068 5.75013 1.94462C5.60301 3.1237 5.72706 4.3208 6.1128 5.44466C6.49855 6.56852 7.13582 7.58947 7.97602 8.42967C8.81621 9.26987 9.83716 9.90713 10.961 10.2929C12.0849 10.6786 13.282 10.8027 14.4611 10.6556C13.9325 11.7918 13.091 12.7539 12.0353 13.4291C10.9796 14.1043 9.75331 14.4647 8.50013 14.4681Z" fill="#44566C"/>
</svg>
