<svg width="21" height="21" viewBox="0 0 21 21" fill="none" xmlns="http://www.w3.org/2000/svg">
<path d="M3.93363 5.63237C4.82626 5.63237 5.54988 4.90875 5.54988 4.01612C5.54988 3.12349 4.82626 2.39987 3.93363 2.39987C3.041 2.39987 2.31738 3.12349 2.31738 4.01612C2.31738 4.90875 3.041 5.63237 3.93363 5.63237Z" stroke="white" stroke-linecap="round" stroke-linejoin="round"/>
<path d="M3.93363 17.8165C4.82626 17.8165 5.54988 17.0929 5.54988 16.2003C5.54988 15.3076 4.82626 14.584 3.93363 14.584C3.041 14.584 2.31738 15.3076 2.31738 16.2003C2.31738 17.0929 3.041 17.8165 3.93363 17.8165Z" stroke="white" stroke-linecap="round" stroke-linejoin="round"/>
<path d="M3.93363 11.7244C4.82626 11.7244 5.54988 11.0008 5.54988 10.1082C5.54988 9.21556 4.82626 8.49194 3.93363 8.49194C3.041 8.49194 2.31738 9.21556 2.31738 10.1082C2.31738 11.0008 3.041 11.7244 3.93363 11.7244Z" stroke="white" stroke-linecap="round" stroke-linejoin="round"/>
<path d="M16.988 2.39987H8.03636C7.62445 2.39987 7.29053 2.73379 7.29053 3.14571V4.88654C7.29053 5.29845 7.62445 5.63237 8.03636 5.63237H16.988C17.3999 5.63237 17.7339 5.29845 17.7339 4.88654V3.14571C17.7339 2.73379 17.3999 2.39987 16.988 2.39987Z" stroke="white" stroke-linecap="round" stroke-linejoin="round"/>
<path d="M16.988 14.584H8.03636C7.62445 14.584 7.29053 14.918 7.29053 15.3299V17.0707C7.29053 17.4826 7.62445 17.8165 8.03636 17.8165H16.988C17.3999 17.8165 17.7339 17.4826 17.7339 17.0707V15.3299C17.7339 14.918 17.3999 14.584 16.988 14.584Z" stroke="white" stroke-linecap="round" stroke-linejoin="round"/>
<path d="M16.988 8.49194H8.03636C7.62445 8.49194 7.29053 8.82586 7.29053 9.23778V10.9786C7.29053 11.3905 7.62445 11.7244 8.03636 11.7244H16.988C17.3999 11.7244 17.7339 11.3905 17.7339 10.9786V9.23778C17.7339 8.82586 17.3999 8.49194 16.988 8.49194Z" stroke="white" stroke-linecap="round" stroke-linejoin="round"/>
</svg>
