<svg width="16" height="16" viewBox="0 0 16 16" fill="none" xmlns="http://www.w3.org/2000/svg">
<path d="M0.607422 13.1082H6.85742V14.3582H0.607422V13.1082ZM0.607422 9.3582H6.85742V10.6082H0.607422V9.3582ZM14.3574 6.8582H1.85742C1.5259 6.8582 1.20796 6.7265 0.973538 6.49208C0.739118 6.25766 0.607422 5.93972 0.607422 5.6082V1.8582C0.607422 1.52668 0.739118 1.20874 0.973538 0.974317C1.20796 0.739896 1.5259 0.6082 1.85742 0.6082H14.3574C14.6889 0.6082 15.0069 0.739896 15.2413 0.974317C15.4757 1.20874 15.6074 1.52668 15.6074 1.8582V5.6082C15.6074 5.93972 15.4757 6.25766 15.2413 6.49208C15.0069 6.7265 14.6889 6.8582 14.3574 6.8582ZM1.85742 1.8582V5.6082H14.3574V1.8582H1.85742ZM14.3574 15.6082H10.6074C10.2759 15.6082 9.95796 15.4765 9.72354 15.2421C9.48912 15.0077 9.35742 14.6897 9.35742 14.3582V10.6082C9.35742 10.2767 9.48912 9.95874 9.72354 9.72432C9.95796 9.4899 10.2759 9.3582 10.6074 9.3582H14.3574C14.6889 9.3582 15.0069 9.4899 15.2413 9.72432C15.4757 9.95874 15.6074 10.2767 15.6074 10.6082V14.3582C15.6074 14.6897 15.4757 15.0077 15.2413 15.2421C15.0069 15.4765 14.6889 15.6082 14.3574 15.6082ZM10.6074 10.6082V14.3582H14.3574V10.6082H10.6074Z" fill="#44566C"/>
</svg>
